<svg width="133" height="49" viewBox="0 0 133 49" fill="none" xmlns="http://www.w3.org/2000/svg">
<rect width="133" height="49" rx="10" fill="#A71717"/>
<path d="M26.0227 36V12.7273H35.2045C36.9697 12.7273 38.4735 13.0644 39.7159 13.7386C40.9583 14.4053 41.9053 15.3333 42.5568 16.5227C43.2159 17.7045 43.5455 19.0682 43.5455 20.6136C43.5455 22.1591 43.2121 23.5227 42.5455 24.7045C41.8788 25.8864 40.9129 26.8068 39.6477 27.4659C38.3902 28.125 36.8674 28.4545 35.0795 28.4545H29.2273V24.5114H34.2841C35.2311 24.5114 36.0114 24.3485 36.625 24.0227C37.2462 23.6894 37.7083 23.2311 38.0114 22.6477C38.322 22.0568 38.4773 21.3788 38.4773 20.6136C38.4773 19.8409 38.322 19.1667 38.0114 18.5909C37.7083 18.0076 37.2462 17.5568 36.625 17.2386C36.0038 16.9129 35.2159 16.75 34.2614 16.75H30.9432V36H26.0227ZM46.7415 36V12.7273H51.6619V31.9432H61.6392V36H46.7415ZM69.5028 36H64.2301L72.2642 12.7273H78.6051L86.6278 36H81.3551L75.5256 18.0455H75.3438L69.5028 36ZM69.1733 26.8523H81.6278V30.6932H69.1733V26.8523ZM85.6903 12.7273H91.2017L96.5085 22.75H96.7358L102.043 12.7273H107.554L99.0653 27.7727V36H94.179V27.7727L85.6903 12.7273Z" fill="white"/>
</svg>
